<svg xmlns="http://www.w3.org/2000/svg" width="40" height="40" viewBox="0 0 40 40"><defs><style>.a{fill:#fff;}.b{fill:none;}</style></defs><g transform="translate(5.085 3.999)"><path class="a" d="M29.118,12.523a1.333,1.333,0,1,0-2.538.815A12.3,12.3,0,1,1,18.6,5.412l-1.087.452a1.333,1.333,0,0,0,.513,2.564,1.317,1.317,0,0,0,.512-.1L22.6,6.632a1.334,1.334,0,0,0,.719-1.743L21.626.821a1.333,1.333,0,1,0-2.461,1.025l.459,1.1a14.869,14.869,0,1,0,9.494,9.576" transform="translate(0 0)"/></g><rect class="b" width="40" height="40"/></svg>